HIERARCHY
ROOT Hips
{
	OFFSET 55.280998 3.152155 93.952499
	CHANNELS 6 Xposition Yposition Zposition Xrotation Yrotation Zrotation
	JOINT spine
	{
		OFFSET 0.000000 -0.448574 7.800591
		CHANNELS 3 Xrotation Yrotation Zrotation
		JOINT spine1
		{
			OFFSET 0.000000 -0.000001 10.136398
			CHANNELS 3 Xrotation Yrotation Zrotation
			JOINT spine2
			{
				OFFSET 0.000000 -0.000002 9.712509
				CHANNELS 3 Xrotation Yrotation Zrotation
				JOINT Neck
				{
					OFFSET 0.000000 -1.188874 24.936104
					CHANNELS 3 Xrotation Yrotation Zrotation
					JOINT Head
					{
						OFFSET 0.000000 -0.000001 7.533844
						CHANNELS 3 Xrotation Yrotation Zrotation
						End Site
						{
							OFFSET 0.000000 6.014017 18.236099
						}
					}
				}
				JOINT RightShoulder
				{
					OFFSET -4.089649 0.569455 10.488792
					CHANNELS 3 Xrotation Yrotation Zrotation
					JOINT RightArm
					{
						OFFSET 0.000000 -0.000002 13.757004
						CHANNELS 3 Xrotation Yrotation Zrotation
						JOINT RightArmRoll
						{
							OFFSET 0.000000 -0.000001 6.944778
							CHANNELS 3 Xrotation Yrotation Zrotation
							JOINT RightForeArm
							{
								OFFSET 0.000000 -0.000003 20.227692
								CHANNELS 3 Xrotation Yrotation Zrotation
								JOINT RightForeArmRoll
								{
									OFFSET 0.000000 -0.000001 7.793121
									CHANNELS 3 Xrotation Yrotation Zrotation
									JOINT RightHand
									{
										OFFSET 0.000000 -0.000002 15.639099
										CHANNELS 3 Xrotation Yrotation Zrotation
										End Site
										{
											OFFSET 0.000000 0.000000 0.100006
										}
									}
								}
							}
						}
					}
				}
				JOINT LeftShoulder
				{
					OFFSET 4.089649 0.569455 10.488792
					CHANNELS 3 Xrotation Yrotation Zrotation
					JOINT LeftArm
					{
						OFFSET 0.000000 -0.000002 13.757004
						CHANNELS 3 Xrotation Yrotation Zrotation
						JOINT LeftArmRoll
						{
							OFFSET 0.000000 -0.000001 6.944778
							CHANNELS 3 Xrotation Yrotation Zrotation
							JOINT LeftForeArm
							{
								OFFSET 0.000000 -0.000003 20.227692
								CHANNELS 3 Xrotation Yrotation Zrotation
								JOINT LeftForeArmRoll
								{
									OFFSET 0.000000 -0.000001 7.793121
									CHANNELS 3 Xrotation Yrotation Zrotation
									JOINT LeftHand
									{
										OFFSET 0.000000 -0.000002 15.639099
										CHANNELS 3 Xrotation Yrotation Zrotation
										End Site
										{
											OFFSET 0.000000 0.000000 0.100006
										}
									}
								}
							}
						}
					}
				}
			}
		}
	}
	JOINT RightUpLeg
	{
		OFFSET -6.914150 1.063580 -1.267883
		CHANNELS 3 Xrotation Yrotation Zrotation
		JOINT RightUpLegRoll
		{
			OFFSET 0.000000 -0.000003 18.337799
			CHANNELS 3 Xrotation Yrotation Zrotation
			JOINT RightLeg
			{
				OFFSET 0.000000 0.000004 -22.708496
				CHANNELS 3 Xrotation Yrotation Zrotation
				JOINT RightLegRoll
				{
					OFFSET 0.000000 -0.000004 22.782799
					CHANNELS 3 Xrotation Yrotation Zrotation
					JOINT RightFoot
					{
						OFFSET 0.000000 -0.000003 18.962898
						CHANNELS 3 Xrotation Yrotation Zrotation
						JOINT RightToeBase
						{
							OFFSET 0.000000 -0.000003 15.852005
							CHANNELS 3 Xrotation Yrotation Zrotation
							End Site
							{
								OFFSET 0.006718 0.884892 7.677017
							}
						}
					}
				}
			}
		}
	}
	JOINT LeftUpLeg
	{
		OFFSET 6.914150 1.063580 -1.267883
		CHANNELS 3 Xrotation Yrotation Zrotation
		JOINT LeftUpLegRoll
		{
			OFFSET 0.000000 -0.000003 18.337898
			CHANNELS 3 Xrotation Yrotation Zrotation
			JOINT LeftLeg
			{
				OFFSET 0.000000 -0.000004 22.708397
				CHANNELS 3 Xrotation Yrotation Zrotation
				JOINT LeftLegRoll
				{
					OFFSET 0.000000 -0.000004 22.993393
					CHANNELS 3 Xrotation Yrotation Zrotation
					JOINT LeftFoot
					{
						OFFSET 0.000000 -0.000003 18.752197
						CHANNELS 3 Xrotation Yrotation Zrotation
						JOINT LeftToeBase
						{
							OFFSET 0.000000 -0.000002 15.852005
							CHANNELS 3 Xrotation Yrotation Zrotation
							End Site
							{
								OFFSET -0.030113 0.884892 7.677002
							}
						}
					}
				}
			}
		}
	}
}
MOTION
Frames: 5
Frame Time: 0.041667
53.528801 -9.610842 93.912018 -4.344136 2.339707 -1.239514 -0.822092 -0.239898 0.420565 2.360520 -0.500418 0.839914 4.005548 -0.490321 0.845848 21.456969 1.616634 -2.707976 -14.875489 -4.565530 -2.758358 -68.602249 -85.866871 -72.985947 63.427384 -71.312837 68.556904 0.000000 0.000000 -0.000000 17.462606 -16.315254 2.112261 -0.000003 0.000009 -2.999989 -5.000215 -7.998881 0.000177 1.792740 63.125988 -1.512925 -18.448720 108.945055 17.205648 -0.000000 0.000000 -0.000000 27.866890 10.224073 -0.755324 0.000011 -0.000008 3.000000 -5.000399 7.998803 -0.000186 0.365674 178.292034 -2.432049 -179.999991 0.000005 -1.100994 168.496245 -0.173450 -0.645300 -0.000003 -0.000001 0.208184 71.921284 6.661469 2.589330 25.456871 -7.350945 -0.000009 -1.520049 178.211629 6.309411 -0.000004 -0.000004 -1.422221 -15.829360 3.497812 0.828473 -0.000004 -0.000002 -0.441256 74.656973 -7.535168 0.262380 25.462646 7.351148 -0.000819 
53.528900 -9.642413 93.910789 -4.338702 2.339335 -1.236715 -0.822574 -0.240179 0.419539 2.359560 -0.499522 0.837826 4.004587 -0.489449 0.843751 21.440684 1.618751 -2.707206 -14.865586 -4.576308 -2.757714 -68.620513 -85.867881 -73.004238 63.424747 -71.317714 68.506558 -0.000000 -0.000001 -0.000000 17.540346 -16.324506 2.126169 -0.000001 0.000010 -2.999990 -5.000211 -7.998884 0.000177 1.802716 63.129567 -1.523864 -18.516305 108.944686 17.281063 0.000000 -0.000000 0.000000 27.896986 10.219689 -0.755866 0.000008 -0.000008 3.000000 -5.000402 7.998803 -0.000186 0.352356 178.284043 -2.439431 -179.999991 0.000005 -1.100994 168.456753 -0.165583 -0.645812 -0.000002 -0.000001 0.209282 71.953208 6.660807 2.587019 25.456870 -7.350945 -0.000009 -1.527309 178.209649 6.306328 -0.000004 -0.000004 -1.422220 -15.853646 3.500097 0.829686 -0.000003 -0.000002 -0.441550 74.679861 -7.535334 0.263993 25.462648 7.351147 -0.000819 
53.524502 -9.659179 93.907410 -4.333158 2.338863 -1.234009 -0.823098 -0.240486 0.418473 2.358500 -0.498607 0.835646 4.003527 -0.488559 0.841560 21.424913 1.622053 -2.706367 -14.855702 -4.588362 -2.756988 -68.639071 -85.868858 -73.022823 63.422186 -71.322140 68.457326 0.000000 -0.000001 -0.000001 17.615698 -16.333825 2.139798 -0.000003 0.000009 -2.999989 -5.000212 -7.998882 0.000177 1.812656 63.133740 -1.534688 -18.583732 108.944331 17.355876 0.000000 -0.000001 0.000000 27.926162 10.215297 -0.756317 0.000011 -0.000008 3.000001 -5.000402 7.998803 -0.000186 0.338783 178.277021 -2.446796 -179.999991 0.000005 -1.100994 168.416947 -0.157717 -0.645330 -0.000002 -0.000001 0.210354 71.985208 6.660019 2.584987 25.456868 -7.350944 -0.000010 -1.534751 178.208638 6.303327 -0.000004 -0.000004 -1.422220 -15.877939 3.502418 0.830903 -0.000003 -0.000002 -0.441834 74.702578 -7.535580 0.265783 25.462650 7.351149 -0.000819 
53.518600 -9.662840 93.901100 -4.327538 2.338322 -1.231360 -0.823661 -0.240814 0.417382 2.357369 -0.497678 0.833402 4.002396 -0.487655 0.839305 21.409254 1.626194 -2.705468 -14.845946 -4.601314 -2.756212 -68.655019 -85.869732 -73.038799 63.420041 -71.326299 68.409255 -0.000001 -0.000000 -0.000000 17.689492 -16.343142 2.153238 -0.000002 0.000009 -2.999989 -5.000212 -7.998882 0.000177 1.822565 63.138221 -1.545426 -18.652053 108.943040 17.431309 0.000000 -0.000001 0.000000 27.954945 10.211026 -0.756839 0.000009 -0.000008 3.000001 -5.000401 7.998802 -0.000186 0.325023 178.269030 -2.454158 -179.999991 0.000005 -1.100994 168.377154 -0.148877 -0.645621 -0.000002 -0.000001 0.211407 72.017180 6.659167 2.583044 25.456870 -7.350945 -0.000009 -1.542346 178.208638 6.300377 -0.000005 -0.000004 -1.422220 -15.902125 3.504759 0.832113 -0.000004 -0.000002 -0.442114 74.725213 -7.535875 0.267660 25.462648 7.351148 -0.000819 
53.524101 -9.689200 93.900902 -4.321881 2.337751 -1.228735 -0.824240 -0.241154 0.416276 2.356198 -0.496741 0.831120 4.001235 -0.486744 0.837014 21.393799 1.630817 -2.704543 -14.836202 -4.614771 -2.755388 -68.671104 -85.870607 -73.054918 63.417541 -71.330288 68.361239 -0.000001 0.000001 0.000001 17.762346 -16.352407 2.166580 0.000000 0.000009 -2.999989 -5.000213 -7.998881 0.000177 1.832466 63.142988 -1.556126 -18.720333 108.941790 17.506526 -0.000000 -0.000000 -0.000000 27.983311 10.206709 -0.757280 0.000007 -0.000008 3.000000 -5.000399 7.998803 -0.000186 0.311159 178.262009 -2.461507 -179.999991 0.000005 -1.100994 168.337266 -0.141030 -0.645106 -0.000001 -0.000001 0.212450 72.049173 6.658314 2.581001 25.456870 -7.350945 -0.000009 -1.550021 178.207654 6.297484 -0.000004 -0.000004 -1.422221 -15.926318 3.507119 0.833326 -0.000003 -0.000002 -0.442390 74.747746 -7.536187 0.269427 25.462650 7.351148 -0.000819 
